<mxfile host="app.diagrams.net" modified="2023-10-01T16:03:28.987Z" agent="Mozilla/5.0 (Windows NT 10.0; Win64; x64) AppleWebKit/537.36 (KHTML, like Gecko) Chrome/117.0.0.0 Safari/537.36" etag="pscPkGYwsJzWz9GT_qX4" version="21.6.8" type="github">
  <diagram name="Page-1" id="a7904f86-f2b4-8e86-fa97-74104820619b">
    <mxGraphModel dx="1236" dy="1415" grid="1" gridSize="10" guides="1" tooltips="1" connect="1" arrows="1" fold="1" page="1" pageScale="1" pageWidth="1100" pageHeight="850" background="none" math="0" shadow="0">
      <root>
        <mxCell id="0" />
        <mxCell id="1" parent="0" />
        <mxCell id="24794b860abc3c2d-50" style="edgeStyle=orthogonalEdgeStyle;rounded=0;html=1;exitX=0;exitY=0.75;entryX=1.006;entryY=0.853;entryPerimeter=0;labelBackgroundColor=none;endArrow=none;endFill=0;endSize=8;fontFamily=Verdana;fontSize=12;align=left;" parent="1" source="24794b860abc3c2d-22" edge="1">
          <mxGeometry relative="1" as="geometry">
            <Array as="points">
              <mxPoint x="370" y="813" />
              <mxPoint x="370" y="615" />
            </Array>
            <mxPoint x="310.8399999999999" y="950.5999999999999" as="targetPoint" />
          </mxGeometry>
        </mxCell>
        <mxCell id="R8bJfb1m4fAPQEYDT5oe-3" value="&lt;br&gt;&lt;b id=&quot;docs-internal-guid-ee10c79b-7fff-0b9f-edda-885d95d07b69&quot; style=&quot;&quot;&gt;&lt;span style=&quot;font-family: Arial, sans-serif; color: rgb(0, 0, 0); background-color: transparent; font-style: normal; font-variant: normal; text-decoration: none; vertical-align: baseline;&quot;&gt;&lt;font style=&quot;font-size: 18px;&quot;&gt;RSA &lt;/font&gt;&lt;/span&gt;&lt;span style=&quot;font-weight: 400; font-size: 11pt; font-family: Arial, sans-serif; color: rgb(0, 0, 0); background-color: transparent; font-style: normal; font-variant: normal; text-decoration: none; vertical-align: baseline;&quot;&gt;(Rivest-Shamir-Adleman) is a widely-used public-key encryption algorithm that ensures secure communication and data protection by employing the mathematical properties of large prime numbers&lt;/span&gt;&lt;/b&gt;&lt;br&gt;" style="shape=hexagon;perimeter=hexagonPerimeter2;whiteSpace=wrap;html=1;fixedSize=1;size=20;" vertex="1" parent="1">
          <mxGeometry x="250" y="20" width="560" height="180" as="geometry" />
        </mxCell>
        <mxCell id="R8bJfb1m4fAPQEYDT5oe-4" value="" style="endArrow=none;html=1;rounded=0;entryX=0.375;entryY=1;entryDx=0;entryDy=0;" edge="1" parent="1" target="R8bJfb1m4fAPQEYDT5oe-3">
          <mxGeometry width="50" height="50" relative="1" as="geometry">
            <mxPoint x="160" y="360" as="sourcePoint" />
            <mxPoint x="590" y="330" as="targetPoint" />
            <Array as="points">
              <mxPoint x="160" y="280" />
              <mxPoint x="460" y="280" />
            </Array>
          </mxGeometry>
        </mxCell>
        <mxCell id="R8bJfb1m4fAPQEYDT5oe-5" value="" style="endArrow=none;html=1;rounded=0;entryX=0.625;entryY=1;entryDx=0;entryDy=0;" edge="1" parent="1" target="R8bJfb1m4fAPQEYDT5oe-3">
          <mxGeometry width="50" height="50" relative="1" as="geometry">
            <mxPoint x="880" y="360" as="sourcePoint" />
            <mxPoint x="610" y="350" as="targetPoint" />
            <Array as="points">
              <mxPoint x="880" y="280" />
              <mxPoint x="600" y="280" />
            </Array>
          </mxGeometry>
        </mxCell>
        <mxCell id="R8bJfb1m4fAPQEYDT5oe-6" value="" style="endArrow=none;html=1;rounded=0;entryX=0.5;entryY=1;entryDx=0;entryDy=0;" edge="1" parent="1" target="R8bJfb1m4fAPQEYDT5oe-3">
          <mxGeometry width="50" height="50" relative="1" as="geometry">
            <mxPoint x="530" y="360" as="sourcePoint" />
            <mxPoint x="610" y="350" as="targetPoint" />
          </mxGeometry>
        </mxCell>
        <mxCell id="R8bJfb1m4fAPQEYDT5oe-9" value="THIRD &amp;gt; Decryption" style="swimlane;whiteSpace=wrap;html=1;" vertex="1" parent="1">
          <mxGeometry x="780" y="360" width="200" height="200" as="geometry" />
        </mxCell>
        <mxCell id="R8bJfb1m4fAPQEYDT5oe-55" value="&lt;font style=&quot;font-size: 10px;&quot;&gt;&lt;br&gt;&lt;b id=&quot;docs-internal-guid-b01dcd32-7fff-af38-cc42-c4650549449d&quot; style=&quot;font-weight:normal;&quot;&gt;&lt;span style=&quot;font-family: Arial, sans-serif; color: rgb(0, 0, 0); background-color: transparent; font-weight: 400; font-style: normal; font-variant: normal; text-decoration: none; vertical-align: baseline;&quot;&gt;RSA decryption is the process of converting ciphertext, which is an encrypted message, back into its original plaintext form using the recipient&#39;s private key. The decryption process involves modular exponentiation, similar to encryption but with the private exponent instead of the public exponent. Here are the key steps&lt;/span&gt;&lt;/b&gt;&lt;br&gt;&lt;/font&gt;" style="rounded=1;whiteSpace=wrap;html=1;arcSize=20;" vertex="1" parent="R8bJfb1m4fAPQEYDT5oe-9">
          <mxGeometry y="30" width="200" height="170" as="geometry" />
        </mxCell>
        <mxCell id="R8bJfb1m4fAPQEYDT5oe-13" value="FIRST &amp;gt; Key gineration" style="swimlane;fontStyle=0;childLayout=stackLayout;horizontal=1;startSize=30;horizontalStack=0;resizeParent=1;resizeParentMax=0;resizeLast=0;collapsible=1;marginBottom=0;whiteSpace=wrap;html=1;" vertex="1" parent="1">
          <mxGeometry x="66" y="360" width="190" height="190" as="geometry" />
        </mxCell>
        <mxCell id="R8bJfb1m4fAPQEYDT5oe-33" value="&#xa;&lt;b id=&quot;docs-internal-guid-7a5feca2-7fff-be97-f8ff-fe9ffb4eea53&quot; style=&quot;font-weight:normal;&quot;&gt;&lt;br&gt;&lt;p style=&quot;line-height:1.38;margin-top:0pt;margin-bottom:0pt;&quot; dir=&quot;ltr&quot;&gt;&lt;span style=&quot;font-size: 11pt; font-family: Arial, sans-serif; color: rgb(0, 0, 0); background-color: transparent; font-weight: 400; font-style: normal; font-variant: normal; text-decoration: none; vertical-align: baseline;&quot;&gt;RSA Key Generation involves the creation of a public key for encryption and a private key for decryption&lt;/span&gt;&lt;/p&gt;&lt;/b&gt;&lt;br class=&quot;Apple-interchange-newline&quot;&gt;&#xa;&#xa;" style="rounded=1;whiteSpace=wrap;html=1;" vertex="1" parent="R8bJfb1m4fAPQEYDT5oe-13">
          <mxGeometry y="30" width="190" height="160" as="geometry" />
        </mxCell>
        <mxCell id="R8bJfb1m4fAPQEYDT5oe-17" value="" style="endArrow=classic;startArrow=classic;html=1;rounded=0;exitX=0.5;exitY=1;exitDx=0;exitDy=0;" edge="1" parent="1" source="R8bJfb1m4fAPQEYDT5oe-13" target="R8bJfb1m4fAPQEYDT5oe-18">
          <mxGeometry width="50" height="50" relative="1" as="geometry">
            <mxPoint x="152.45000000000005" y="553.3600000000001" as="sourcePoint" />
            <mxPoint x="160" y="550" as="targetPoint" />
          </mxGeometry>
        </mxCell>
        <mxCell id="R8bJfb1m4fAPQEYDT5oe-18" value="&lt;b&gt;select two large Prime numbers :&lt;/b&gt;&lt;br&gt;choose p=61 and q=53&lt;br&gt;(in practice use much larger prime numbers)" style="whiteSpace=wrap;html=1;aspect=fixed;" vertex="1" parent="1">
          <mxGeometry x="80" y="640" width="160" height="160" as="geometry" />
        </mxCell>
        <mxCell id="R8bJfb1m4fAPQEYDT5oe-19" value="&lt;b&gt;compute Euler&#39;s Totions (φ&lt;br&gt;) :&lt;/b&gt;&lt;br&gt;φ(N)=(p-1)*(q-1)&lt;br&gt;=(61-1)*(53-1)&lt;br&gt;=3120" style="whiteSpace=wrap;html=1;aspect=fixed;" vertex="1" parent="1">
          <mxGeometry x="77.5" y="1120" width="165" height="165" as="geometry" />
        </mxCell>
        <mxCell id="R8bJfb1m4fAPQEYDT5oe-23" value="&lt;b&gt;compute the modulus(N):&lt;/b&gt;&lt;br&gt;N= p*q =61*53&lt;br&gt;=3233" style="whiteSpace=wrap;html=1;aspect=fixed;" vertex="1" parent="1">
          <mxGeometry x="80" y="880" width="160" height="160" as="geometry" />
        </mxCell>
        <mxCell id="R8bJfb1m4fAPQEYDT5oe-24" value="" style="endArrow=classic;startArrow=classic;html=1;rounded=0;entryX=0.5;entryY=1;entryDx=0;entryDy=0;" edge="1" parent="1" target="R8bJfb1m4fAPQEYDT5oe-18">
          <mxGeometry width="50" height="50" relative="1" as="geometry">
            <mxPoint x="160" y="880" as="sourcePoint" />
            <mxPoint x="280" y="920" as="targetPoint" />
          </mxGeometry>
        </mxCell>
        <mxCell id="R8bJfb1m4fAPQEYDT5oe-25" value="" style="endArrow=classic;startArrow=classic;html=1;rounded=0;entryX=0.5;entryY=0;entryDx=0;entryDy=0;exitX=0.5;exitY=1;exitDx=0;exitDy=0;" edge="1" parent="1" source="R8bJfb1m4fAPQEYDT5oe-23" target="R8bJfb1m4fAPQEYDT5oe-19">
          <mxGeometry width="50" height="50" relative="1" as="geometry">
            <mxPoint x="230" y="970" as="sourcePoint" />
            <mxPoint x="280" y="920" as="targetPoint" />
          </mxGeometry>
        </mxCell>
        <mxCell id="R8bJfb1m4fAPQEYDT5oe-26" value="" style="endArrow=classic;startArrow=classic;html=1;rounded=0;exitX=0.5;exitY=1;exitDx=0;exitDy=0;" edge="1" parent="1" source="R8bJfb1m4fAPQEYDT5oe-19" target="R8bJfb1m4fAPQEYDT5oe-27">
          <mxGeometry width="50" height="50" relative="1" as="geometry">
            <mxPoint x="200" y="1270" as="sourcePoint" />
            <mxPoint x="160" y="1360" as="targetPoint" />
          </mxGeometry>
        </mxCell>
        <mxCell id="R8bJfb1m4fAPQEYDT5oe-27" value="&lt;b&gt;choose a public Exponent (e) :&lt;br&gt;&lt;/b&gt;select a relatively prime public exponent&amp;nbsp;&lt;br&gt;e = 17 (a common choice )" style="whiteSpace=wrap;html=1;aspect=fixed;" vertex="1" parent="1">
          <mxGeometry x="80" y="1320" width="160" height="160" as="geometry" />
        </mxCell>
        <mxCell id="R8bJfb1m4fAPQEYDT5oe-28" value="" style="endArrow=classic;startArrow=classic;html=1;rounded=0;exitX=0.5;exitY=1;exitDx=0;exitDy=0;entryX=0.5;entryY=0;entryDx=0;entryDy=0;" edge="1" parent="1" source="R8bJfb1m4fAPQEYDT5oe-27" target="R8bJfb1m4fAPQEYDT5oe-30">
          <mxGeometry width="50" height="50" relative="1" as="geometry">
            <mxPoint x="180" y="1470" as="sourcePoint" />
            <mxPoint x="180.64" y="1546.3200000000002" as="targetPoint" />
            <Array as="points" />
          </mxGeometry>
        </mxCell>
        <mxCell id="R8bJfb1m4fAPQEYDT5oe-30" value="&lt;b&gt;calculate the privite Exponent (d) :&lt;br&gt;&lt;/b&gt;&lt;p style=&quot;line-height:1.38;margin-top:0pt;margin-bottom:0pt;&quot; dir=&quot;ltr&quot;&gt;d * e ≡ 1 (mod φ(N))&lt;/p&gt;&lt;p style=&quot;line-height:1.38;margin-top:0pt;margin-bottom:0pt;&quot; dir=&quot;ltr&quot;&gt;&lt;span style=&quot;font-family: Arial, sans-serif; color: rgb(0, 0, 0); background-color: transparent; font-weight: 400; font-style: normal; font-variant: normal; text-decoration: none; vertical-align: baseline;&quot;&gt;&lt;font style=&quot;font-size: 11px;&quot;&gt;d * 17 ≡ 1 (mod 3120)&lt;/font&gt;&lt;/span&gt;&lt;/p&gt;&lt;p style=&quot;line-height:1.38;margin-top:0pt;margin-bottom:0pt;&quot; dir=&quot;ltr&quot;&gt;&lt;font style=&quot;font-size: 11px;&quot;&gt;&lt;span id=&quot;docs-internal-guid-54242ad8-7fff-4cfb-bd55-45f085751ef5&quot;&gt;&lt;/span&gt;&lt;/font&gt;&lt;/p&gt;&lt;p style=&quot;line-height:1.38;margin-top:0pt;margin-bottom:0pt;&quot; dir=&quot;ltr&quot;&gt;&lt;span style=&quot;font-family: Arial, sans-serif; color: rgb(0, 0, 0); background-color: transparent; font-weight: 400; font-style: normal; font-variant: normal; text-decoration: none; vertical-align: baseline;&quot;&gt;&lt;font style=&quot;font-size: 11px;&quot;&gt;d ≡ 2753 (mod 3120).&lt;/font&gt;&lt;/span&gt;&lt;/p&gt;&lt;span id=&quot;docs-internal-guid-54242ad8-7fff-4cfb-bd55-45f085751ef5&quot;&gt;&lt;div&gt;&lt;span style=&quot;font-size: 11pt; font-family: Arial, sans-serif; background-color: transparent; font-variant-numeric: normal; font-variant-east-asian: normal; font-variant-alternates: normal; font-variant-position: normal; vertical-align: baseline;&quot;&gt;&lt;br&gt;&lt;/span&gt;&lt;/div&gt;&lt;/span&gt;" style="whiteSpace=wrap;html=1;aspect=fixed;" vertex="1" parent="1">
          <mxGeometry x="81" y="1560" width="160" height="160" as="geometry" />
        </mxCell>
        <mxCell id="R8bJfb1m4fAPQEYDT5oe-31" value="&lt;br&gt;&lt;p style=&quot;line-height:1.38;margin-top:0pt;margin-bottom:0pt;&quot; dir=&quot;ltr&quot;&gt;&lt;/p&gt;&lt;span id=&quot;docs-internal-guid-7a5feca2-7fff-be97-f8ff-fe9ffb4eea53&quot;&gt;&lt;/span&gt;&lt;br&gt;&lt;p style=&quot;line-height:1.38;margin-top:0pt;margin-bottom:0pt;&quot; dir=&quot;ltr&quot;&gt;&lt;/p&gt;&lt;div&gt;&lt;/div&gt;&lt;br&gt;&lt;p&gt;&lt;/p&gt;" style="text;html=1;align=center;verticalAlign=middle;resizable=0;points=[];autosize=1;strokeColor=none;fillColor=none;" vertex="1" parent="1">
          <mxGeometry x="140" y="398" width="20" height="70" as="geometry" />
        </mxCell>
        <mxCell id="R8bJfb1m4fAPQEYDT5oe-34" value="" style="endArrow=classic;startArrow=classic;html=1;rounded=0;exitX=0.5;exitY=1;exitDx=0;exitDy=0;" edge="1" parent="1" source="R8bJfb1m4fAPQEYDT5oe-30">
          <mxGeometry width="50" height="50" relative="1" as="geometry">
            <mxPoint x="160" y="1730" as="sourcePoint" />
            <mxPoint x="280" y="1800" as="targetPoint" />
            <Array as="points">
              <mxPoint x="160" y="1760" />
              <mxPoint x="280" y="1760" />
            </Array>
          </mxGeometry>
        </mxCell>
        <mxCell id="R8bJfb1m4fAPQEYDT5oe-35" value="Public Key (N,e):&lt;br&gt;public key = (3233, 17)" style="whiteSpace=wrap;html=1;aspect=fixed;" vertex="1" parent="1">
          <mxGeometry x="240" y="1800" width="160" height="160" as="geometry" />
        </mxCell>
        <mxCell id="R8bJfb1m4fAPQEYDT5oe-37" value="&lt;b&gt;Privite key (N,d):&lt;/b&gt;&lt;br&gt;privite key = (3233, 2753)" style="whiteSpace=wrap;html=1;aspect=fixed;" vertex="1" parent="1">
          <mxGeometry y="1800" width="160" height="160" as="geometry" />
        </mxCell>
        <mxCell id="R8bJfb1m4fAPQEYDT5oe-38" value="" style="endArrow=classic;startArrow=classic;html=1;rounded=0;entryX=0.5;entryY=1;entryDx=0;entryDy=0;" edge="1" parent="1" target="R8bJfb1m4fAPQEYDT5oe-30">
          <mxGeometry width="50" height="50" relative="1" as="geometry">
            <mxPoint x="40" y="1800" as="sourcePoint" />
            <mxPoint x="160" y="1730" as="targetPoint" />
            <Array as="points">
              <mxPoint x="40" y="1760" />
              <mxPoint x="160" y="1760" />
            </Array>
          </mxGeometry>
        </mxCell>
        <mxCell id="R8bJfb1m4fAPQEYDT5oe-43" value="SECOND &amp;gt; Encryption" style="swimlane;fontStyle=0;childLayout=stackLayout;horizontal=1;startSize=30;horizontalStack=0;resizeParent=1;resizeParentMax=0;resizeLast=0;collapsible=1;marginBottom=0;whiteSpace=wrap;html=1;" vertex="1" parent="1">
          <mxGeometry x="420" y="360" width="220" height="190" as="geometry" />
        </mxCell>
        <mxCell id="R8bJfb1m4fAPQEYDT5oe-44" value="&#xa;&lt;b id=&quot;docs-internal-guid-3ff35421-7fff-f3bb-5fb0-ffe59d424ae0&quot; style=&quot;font-weight:normal;&quot;&gt;&lt;span style=&quot;font-size: 11pt; font-family: Arial, sans-serif; color: rgb(0, 0, 0); background-color: transparent; font-weight: 400; font-style: normal; font-variant: normal; text-decoration: none; vertical-align: baseline;&quot;&gt;RSA Encryption is the process of transforming a plaintext message into a ciphertext using a recipient&#39;s public key, making it secure for transmission or storage&lt;/span&gt;&lt;/b&gt;&#xa;&#xa;" style="rounded=1;whiteSpace=wrap;html=1;" vertex="1" parent="R8bJfb1m4fAPQEYDT5oe-43">
          <mxGeometry y="30" width="220" height="160" as="geometry" />
        </mxCell>
        <mxCell id="R8bJfb1m4fAPQEYDT5oe-45" value="&lt;br&gt;&lt;p style=&quot;line-height:1.38;margin-top:0pt;margin-bottom:0pt;&quot; dir=&quot;ltr&quot;&gt;&lt;/p&gt;&lt;span id=&quot;docs-internal-guid-7a5feca2-7fff-be97-f8ff-fe9ffb4eea53&quot;&gt;&lt;/span&gt;&lt;br&gt;&lt;p style=&quot;line-height:1.38;margin-top:0pt;margin-bottom:0pt;&quot; dir=&quot;ltr&quot;&gt;&lt;/p&gt;&lt;div&gt;&lt;/div&gt;&lt;br&gt;&lt;p&gt;&lt;/p&gt;" style="text;html=1;align=center;verticalAlign=middle;resizable=0;points=[];autosize=1;strokeColor=none;fillColor=none;" vertex="1" parent="1">
          <mxGeometry x="509" y="398" width="20" height="70" as="geometry" />
        </mxCell>
        <mxCell id="R8bJfb1m4fAPQEYDT5oe-47" value="" style="endArrow=classic;html=1;rounded=0;exitX=0.5;exitY=1;exitDx=0;exitDy=0;" edge="1" parent="1" source="R8bJfb1m4fAPQEYDT5oe-44">
          <mxGeometry width="50" height="50" relative="1" as="geometry">
            <mxPoint x="460" y="710" as="sourcePoint" />
            <mxPoint x="530" y="640" as="targetPoint" />
          </mxGeometry>
        </mxCell>
        <mxCell id="R8bJfb1m4fAPQEYDT5oe-48" value="&lt;p style=&quot;line-height:1.38;margin-top:0pt;margin-bottom:0pt;&quot; dir=&quot;ltr&quot;&gt;&lt;/p&gt;&lt;p style=&quot;line-height:1.38;margin-top:0pt;margin-bottom:0pt;&quot; dir=&quot;ltr&quot;&gt;&lt;/p&gt;&lt;div&gt;&lt;/div&gt;&lt;font face=&quot;Arial, sans-serif&quot;&gt;&lt;span style=&quot;font-size: 14.6667px;&quot;&gt;&lt;b&gt;Public key (N, e):&lt;br&gt;&lt;/b&gt;&lt;/span&gt;&lt;/font&gt;&lt;b&gt;PK = (3233, 17)&lt;/b&gt;&lt;br&gt;&lt;span id=&quot;docs-internal-guid-9b8e1421-7fff-8505-aad0-619807a7b8a9&quot;&gt;&lt;/span&gt;" style="whiteSpace=wrap;html=1;aspect=fixed;" vertex="1" parent="1">
          <mxGeometry x="430" y="640" width="200" height="200" as="geometry" />
        </mxCell>
        <mxCell id="R8bJfb1m4fAPQEYDT5oe-49" value="" style="endArrow=classic;html=1;rounded=0;exitX=0.5;exitY=1;exitDx=0;exitDy=0;" edge="1" parent="1" source="R8bJfb1m4fAPQEYDT5oe-48">
          <mxGeometry width="50" height="50" relative="1" as="geometry">
            <mxPoint x="460" y="850" as="sourcePoint" />
            <mxPoint x="530" y="920" as="targetPoint" />
          </mxGeometry>
        </mxCell>
        <mxCell id="R8bJfb1m4fAPQEYDT5oe-50" value="&lt;b&gt;&lt;br&gt;&lt;span id=&quot;docs-internal-guid-cf000537-7fff-2f46-0a41-f832065add43&quot; style=&quot;&quot;&gt;&lt;span style=&quot;font-size: 11pt; font-family: Arial, sans-serif; color: rgb(0, 0, 0); background-color: transparent; font-style: normal; font-variant: normal; text-decoration: none; vertical-align: baseline;&quot;&gt;Plaintext Message (M):&lt;br&gt;&lt;/span&gt;&lt;/span&gt;&lt;/b&gt;&lt;span id=&quot;docs-internal-guid-d8d3e734-7fff-a1e4-96a5-d5bd03ff803f&quot;&gt;&lt;/span&gt;&lt;span id=&quot;docs-internal-guid-d8d3e734-7fff-a1e4-96a5-d5bd03ff803f&quot;&gt;&lt;/span&gt;&lt;span id=&quot;docs-internal-guid-d8d3e734-7fff-a1e4-96a5-d5bd03ff803f&quot;&gt;&lt;/span&gt;&lt;span id=&quot;docs-internal-guid-d8d3e734-7fff-a1e4-96a5-d5bd03ff803f&quot;&gt;&lt;/span&gt;&lt;span id=&quot;docs-internal-guid-d8d3e734-7fff-a1e4-96a5-d5bd03ff803f&quot;&gt;&lt;/span&gt;&lt;span id=&quot;docs-internal-guid-d8d3e734-7fff-a1e4-96a5-d5bd03ff803f&quot;&gt;&lt;/span&gt;&lt;b&gt;&lt;br&gt;&lt;/b&gt;&lt;b&gt;let&#39;s encrypt the plaintext message M = 42 (for demonstration)&amp;nbsp;&lt;br&gt;&lt;/b&gt;" style="whiteSpace=wrap;html=1;aspect=fixed;" vertex="1" parent="1">
          <mxGeometry x="430" y="920" width="200" height="200" as="geometry" />
        </mxCell>
        <mxCell id="R8bJfb1m4fAPQEYDT5oe-51" value="" style="endArrow=classic;html=1;rounded=0;exitX=0.5;exitY=1;exitDx=0;exitDy=0;" edge="1" parent="1" source="R8bJfb1m4fAPQEYDT5oe-50" target="R8bJfb1m4fAPQEYDT5oe-52">
          <mxGeometry width="50" height="50" relative="1" as="geometry">
            <mxPoint x="480" y="1220" as="sourcePoint" />
            <mxPoint x="530" y="1200" as="targetPoint" />
          </mxGeometry>
        </mxCell>
        <mxCell id="R8bJfb1m4fAPQEYDT5oe-52" value="&lt;font size=&quot;3&quot;&gt;&lt;b&gt;calculate Ciphertext (C) :&lt;/b&gt;&lt;/font&gt;&lt;br&gt;&lt;b id=&quot;docs-internal-guid-f134b79a-7fff-7de1-dddc-b0579d386d29&quot; style=&quot;font-weight:normal;&quot;&gt;&lt;p style=&quot;line-height:1.38;margin-top:0pt;margin-bottom:0pt;&quot; dir=&quot;ltr&quot;&gt;&lt;span style=&quot;font-size: 11pt; font-family: Arial, sans-serif; color: rgb(0, 0, 0); background-color: transparent; font-weight: 400; font-style: normal; font-variant: normal; text-decoration: none; vertical-align: baseline;&quot;&gt;Use the public key (N, e) to encrypt the plaintext:&lt;/span&gt;&lt;/p&gt;&lt;p style=&quot;line-height:1.38;margin-top:0pt;margin-bottom:0pt;&quot; dir=&quot;ltr&quot;&gt;&lt;span style=&quot;font-size: 11pt; font-family: Arial, sans-serif; color: rgb(0, 0, 0); background-color: transparent; font-weight: 400; font-style: normal; font-variant: normal; text-decoration: none; vertical-align: baseline;&quot;&gt;&amp;nbsp;Ciphertext&amp;nbsp;&lt;/span&gt;&lt;/p&gt;&lt;p style=&quot;line-height:1.38;margin-top:0pt;margin-bottom:0pt;&quot; dir=&quot;ltr&quot;&gt;&lt;span style=&quot;font-size: 11pt; font-family: Arial, sans-serif; color: rgb(0, 0, 0); background-color: transparent; font-weight: 400; font-style: normal; font-variant: normal; text-decoration: none; vertical-align: baseline;&quot;&gt;C = M^e mod N&lt;/span&gt;&lt;/p&gt;&lt;p style=&quot;line-height:1.38;margin-top:0pt;margin-bottom:0pt;&quot; dir=&quot;ltr&quot;&gt;&lt;span style=&quot;font-size: 11pt; font-family: Arial, sans-serif; color: rgb(0, 0, 0); background-color: transparent; font-weight: 400; font-style: normal; font-variant: normal; text-decoration: none; vertical-align: baseline;&quot;&gt;C = 42^17 mod 3233&lt;/span&gt;&lt;/p&gt;&lt;p style=&quot;line-height:1.38;margin-top:0pt;margin-bottom:0pt;&quot; dir=&quot;ltr&quot;&gt;&lt;span style=&quot;font-size: 11pt; font-family: Arial, sans-serif; color: rgb(0, 0, 0); background-color: transparent; font-weight: 400; font-style: normal; font-variant: normal; text-decoration: none; vertical-align: baseline;&quot;&gt;C ≈ 2675&lt;/span&gt;&lt;/p&gt;&lt;/b&gt;&lt;br class=&quot;Apple-interchange-newline&quot;&gt;&lt;br&gt;" style="whiteSpace=wrap;html=1;aspect=fixed;" vertex="1" parent="1">
          <mxGeometry x="430" y="1195" width="205" height="205" as="geometry" />
        </mxCell>
        <mxCell id="R8bJfb1m4fAPQEYDT5oe-53" value="" style="endArrow=classic;html=1;rounded=0;exitX=0.5;exitY=1;exitDx=0;exitDy=0;" edge="1" parent="1" source="R8bJfb1m4fAPQEYDT5oe-52" target="R8bJfb1m4fAPQEYDT5oe-54">
          <mxGeometry width="50" height="50" relative="1" as="geometry">
            <mxPoint x="480" y="1450" as="sourcePoint" />
            <mxPoint x="533" y="1480" as="targetPoint" />
          </mxGeometry>
        </mxCell>
        <mxCell id="R8bJfb1m4fAPQEYDT5oe-54" value="&lt;b&gt;Ciphertext (C) :&lt;br&gt;&lt;br&gt;ciphertext = 2675&lt;br&gt;&lt;/b&gt;" style="whiteSpace=wrap;html=1;aspect=fixed;" vertex="1" parent="1">
          <mxGeometry x="435" y="1480" width="200" height="200" as="geometry" />
        </mxCell>
        <mxCell id="R8bJfb1m4fAPQEYDT5oe-56" value="" style="endArrow=classic;html=1;rounded=0;exitX=0.5;exitY=1;exitDx=0;exitDy=0;" edge="1" parent="1" source="R8bJfb1m4fAPQEYDT5oe-55" target="R8bJfb1m4fAPQEYDT5oe-57">
          <mxGeometry width="50" height="50" relative="1" as="geometry">
            <mxPoint x="860" y="580" as="sourcePoint" />
            <mxPoint x="880" y="640" as="targetPoint" />
          </mxGeometry>
        </mxCell>
        <mxCell id="R8bJfb1m4fAPQEYDT5oe-57" value="&lt;p style=&quot;line-height:1.38;margin-top:0pt;margin-bottom:0pt;&quot; dir=&quot;ltr&quot;&gt;&lt;font face=&quot;Arial, sans-serif&quot;&gt;&lt;span style=&quot;font-size: 14.6667px;&quot;&gt;&lt;b&gt;Privit Key (N, d):&lt;/b&gt;&lt;/span&gt;&lt;/font&gt;&lt;/p&gt;&lt;p style=&quot;line-height:1.38;margin-top:0pt;margin-bottom:0pt;&quot; dir=&quot;ltr&quot;&gt;&lt;/p&gt;&lt;p style=&quot;line-height:1.38;margin-top:0pt;margin-bottom:0pt;&quot; dir=&quot;ltr&quot;&gt;&lt;/p&gt;&lt;div&gt;&lt;/div&gt;&lt;span style=&quot;font-size: 11pt; font-family: Arial, sans-serif; background-color: transparent; font-variant-numeric: normal; font-variant-east-asian: normal; font-variant-alternates: normal; font-variant-position: normal; vertical-align: baseline;&quot;&gt;PK = (3233, 2753)&amp;nbsp;&lt;/span&gt;&lt;p&gt;&lt;/p&gt;&lt;p style=&quot;line-height:1.38;margin-top:0pt;margin-bottom:0pt;&quot; dir=&quot;ltr&quot;&gt;&lt;span style=&quot;font-size: 11pt; font-family: Arial, sans-serif; background-color: transparent; font-variant-numeric: normal; font-variant-east-asian: normal; font-variant-alternates: normal; font-variant-position: normal; vertical-align: baseline;&quot;&gt;(matching the public key used for encryption).&lt;/span&gt;&lt;br&gt;&lt;/p&gt;&lt;span id=&quot;docs-internal-guid-91483fd8-7fff-9480-fe43-27981fd6aeb8&quot;&gt;&lt;/span&gt;" style="whiteSpace=wrap;html=1;aspect=fixed;" vertex="1" parent="1">
          <mxGeometry x="800" y="640" width="160" height="160" as="geometry" />
        </mxCell>
        <mxCell id="R8bJfb1m4fAPQEYDT5oe-58" value="" style="endArrow=classic;html=1;rounded=0;exitX=0.5;exitY=1;exitDx=0;exitDy=0;" edge="1" parent="1" source="R8bJfb1m4fAPQEYDT5oe-57">
          <mxGeometry width="50" height="50" relative="1" as="geometry">
            <mxPoint x="820" y="810" as="sourcePoint" />
            <mxPoint x="880" y="880" as="targetPoint" />
          </mxGeometry>
        </mxCell>
        <mxCell id="R8bJfb1m4fAPQEYDT5oe-59" value="&lt;b&gt;Ciphertext (C) :&lt;br&gt;ciphertext = 2675 (result of RSA encription )&lt;br&gt;&lt;/b&gt;" style="whiteSpace=wrap;html=1;aspect=fixed;" vertex="1" parent="1">
          <mxGeometry x="800" y="880" width="160" height="160" as="geometry" />
        </mxCell>
        <mxCell id="R8bJfb1m4fAPQEYDT5oe-60" value="" style="endArrow=classic;html=1;rounded=0;exitX=0.5;exitY=1;exitDx=0;exitDy=0;" edge="1" parent="1" source="R8bJfb1m4fAPQEYDT5oe-59">
          <mxGeometry width="50" height="50" relative="1" as="geometry">
            <mxPoint x="810" y="1070" as="sourcePoint" />
            <mxPoint x="880" y="1120" as="targetPoint" />
          </mxGeometry>
        </mxCell>
        <mxCell id="R8bJfb1m4fAPQEYDT5oe-61" value="&lt;font style=&quot;font-size: 14px;&quot;&gt;&lt;b style=&quot;&quot;&gt;Calculate Plaintext (M) :&lt;/b&gt;&lt;br&gt;To decrypt the ciphertext, raise it to the power of the private exponent (d) modulo the modulus (N) :&lt;br&gt;example : Plaintext (M) = C^d mod N&lt;br&gt;M=2675^2753 mod 3233&lt;br&gt;M&amp;nbsp;≈ 42 (original plaintext ).&amp;nbsp;&lt;/font&gt;" style="whiteSpace=wrap;html=1;aspect=fixed;" vertex="1" parent="1">
          <mxGeometry x="720" y="1120" width="320" height="320" as="geometry" />
        </mxCell>
        <mxCell id="R8bJfb1m4fAPQEYDT5oe-62" value="" style="endArrow=classic;html=1;rounded=0;exitX=0.5;exitY=1;exitDx=0;exitDy=0;" edge="1" parent="1" source="R8bJfb1m4fAPQEYDT5oe-61" target="R8bJfb1m4fAPQEYDT5oe-63">
          <mxGeometry width="50" height="50" relative="1" as="geometry">
            <mxPoint x="760" y="1590" as="sourcePoint" />
            <mxPoint x="880" y="1520" as="targetPoint" />
          </mxGeometry>
        </mxCell>
        <mxCell id="R8bJfb1m4fAPQEYDT5oe-63" value="&lt;b&gt;Original Message (M) :&lt;br&gt;example : original message = 42 (&lt;br&gt;the decryped plaintext)&lt;br&gt;&lt;/b&gt;" style="whiteSpace=wrap;html=1;aspect=fixed;" vertex="1" parent="1">
          <mxGeometry x="780" y="1520" width="200" height="200" as="geometry" />
        </mxCell>
      </root>
    </mxGraphModel>
  </diagram>
</mxfile>
